<svg xmlns="http://www.w3.org/2000/svg" xmlns:xlink="http://www.w3.org/1999/xlink" contentStyleType="text/css" height="399px" preserveAspectRatio="none" style="width:545px;height:399px;background:#FFFFFF;" version="1.1" viewBox="0 0 545 399" width="545px" zoomAndPan="magnify"><defs/><g><line style="stroke:#666666;stroke-width:0.5;stroke-dasharray:5.0,5.0;" x1="32.5" x2="32.5" y1="85.0679" y2="392.5091"/><line style="stroke:#666666;stroke-width:0.5;stroke-dasharray:5.0,5.0;" x1="140.9926" x2="140.9926" y1="85.0679" y2="392.5091"/><line style="stroke:#666666;stroke-width:0.5;stroke-dasharray:5.0,5.0;" x1="268.1094" x2="268.1094" y1="85.0679" y2="392.5091"/><line style="stroke:#666666;stroke-width:0.5;stroke-dasharray:5.0,5.0;" x1="366.6731" x2="366.6731" y1="85.0679" y2="392.5091"/><line style="stroke:#666666;stroke-width:0.5;stroke-dasharray:5.0,5.0;" x1="505.0579" x2="505.0579" y1="85.0679" y2="392.5091"/><text fill="#000000" font-family="sans-serif" font-size="14" lengthAdjust="spacing" textLength="30.6179" x="14.1911" y="80.9659">User</text><ellipse cx="32.5" cy="21.5" fill="#E2E2F0" rx="16" ry="16" style="stroke:#181818;stroke-width:0.5;"/><path d="M32.5,41.5 C36.5,41.5 39.5,41.5 43.5,37.5 C51.5,37.5 59.5,45.5 59.5,53.5 L59.5,57.5 C59.5,61.5 55.5,65.5 51.5,65.5 L13.5,65.5 C9.5,65.5 5.5,61.5 5.5,57.5 L5.5,53.5 C5.5,45.5 13.5,37.5 21.5,37.5 C25.5,41.5 28.5,41.5 32.5,41.5 " fill="#E2E2F0" style="stroke:#181818;stroke-width:0.5;"/><rect fill="#E2E2F0" height="33.0679" rx="2.5" ry="2.5" style="stroke:#181818;stroke-width:0.5;" width="34.9299" x="123.5276" y="51"/><text fill="#000000" font-family="sans-serif" font-size="14" lengthAdjust="spacing" textLength="20.9299" x="130.5276" y="72.9659">CLI</text><rect fill="#E2E2F0" height="33.0679" rx="2.5" ry="2.5" style="stroke:#181818;stroke-width:0.5;" width="110.3896" x="212.9146" y="51"/><text fill="#000000" font-family="sans-serif" font-size="14" lengthAdjust="spacing" textLength="96.3896" x="219.9146" y="72.9659">Render Engine</text><rect fill="#E2E2F0" height="33.0679" rx="2.5" ry="2.5" style="stroke:#181818;stroke-width:0.5;" width="66.7378" x="333.3042" y="51"/><text fill="#000000" font-family="sans-serif" font-size="14" lengthAdjust="spacing" textLength="52.7378" x="340.3042" y="72.9659">Chrome</text><text fill="#000000" font-family="sans-serif" font-size="14" lengthAdjust="spacing" textLength="73.5977" x="465.259" y="80.9659">File System</text><path d="M487.0579,30 C487.0579,20 505.0579,20 505.0579,20 C505.0579,20 523.0579,20 523.0579,30 L523.0579,56 C523.0579,66 505.0579,66 505.0579,66 C505.0579,66 487.0579,66 487.0579,56 L487.0579,30 " fill="#E2E2F0" style="stroke:#181818;stroke-width:1.5;"/><path d="M487.0579,30 C487.0579,40 505.0579,40 505.0579,40 C505.0579,40 523.0579,40 523.0579,30 " fill="none" style="stroke:#181818;stroke-width:1.5;"/><polygon fill="#666666" points="128.9926,111.412,138.9926,115.412,128.9926,119.412,132.9926,115.412" style="stroke:#666666;stroke-width:1.0;"/><line style="stroke:#666666;stroke-width:1.0;" x1="32.5" x2="134.9926" y1="115.412" y2="115.412"/><text fill="#666666" font-family="sans-serif" font-size="12" lengthAdjust="spacing" textLength="31.8362" x="55.0841" y="109.896">slides</text><text fill="#666666" font-family="sans-serif" font-size="12" lengthAdjust="spacing" textLength="3.12" x="86.9203" y="109.896">&#160;</text><text fill="#666666" font-family="sans-serif" font-size="12" lengthAdjust="spacing" textLength="28.3682" x="90.0403" y="109.896">build</text><polygon fill="#666666" points="493.0579,158.1003,503.0579,162.1003,493.0579,166.1003,497.0579,162.1003" style="stroke:#666666;stroke-width:1.0;"/><line style="stroke:#666666;stroke-width:1.0;" x1="140.9926" x2="499.0579" y1="162.1003" y2="162.1003"/><text fill="#666666" font-family="sans-serif" font-size="12" lengthAdjust="spacing" textLength="25.8362" x="251.2947" y="140.2401">read</text><text fill="#666666" font-family="sans-serif" font-size="12" lengthAdjust="spacing" textLength="3.12" x="277.1309" y="140.2401">&#160;</text><text fill="#666666" font-family="sans-serif" font-size="12" lengthAdjust="spacing" textLength="35.0403" x="280.2509" y="140.2401">config</text><text fill="#666666" font-family="sans-serif" font-size="12" lengthAdjust="spacing" textLength="3.12" x="315.2912" y="140.2401">&#160;</text><text fill="#666666" font-family="sans-serif" font-size="12" lengthAdjust="spacing" textLength="6.864" x="318.4112" y="140.2401">+</text><text fill="#666666" font-family="sans-serif" font-size="12" lengthAdjust="spacing" textLength="3.12" x="325.2753" y="140.2401">&#160;</text><text fill="#666666" font-family="sans-serif" font-size="12" lengthAdjust="spacing" textLength="56.3764" x="328.3953" y="140.2401">templates</text><text fill="#666666" font-family="sans-serif" font-size="12" lengthAdjust="spacing" textLength="3.12" x="384.7717" y="140.2401">&#160;</text><text fill="#666666" font-family="sans-serif" font-size="12" lengthAdjust="spacing" textLength="6.864" x="387.8917" y="140.2401">+</text><text fill="#666666" font-family="sans-serif" font-size="12" lengthAdjust="spacing" textLength="66.8645" x="289.593" y="156.5842">translations</text><polygon fill="#666666" points="256.1094,188.4444,266.1094,192.4444,256.1094,196.4444,260.1094,192.4444" style="stroke:#666666;stroke-width:1.0;"/><line style="stroke:#666666;stroke-width:1.0;" x1="140.9926" x2="262.1094" y1="192.4444" y2="192.4444"/><text fill="#666666" font-family="sans-serif" font-size="12" lengthAdjust="spacing" textLength="43.6203" x="152.9926" y="186.9283">process</text><text fill="#666666" font-family="sans-serif" font-size="12" lengthAdjust="spacing" textLength="3.12" x="196.6129" y="186.9283">&#160;</text><text fill="#666666" font-family="sans-serif" font-size="12" lengthAdjust="spacing" textLength="56.3764" x="199.733" y="186.9283">templates</text><polygon fill="#666666" points="151.9926,218.7885,141.9926,222.7885,151.9926,226.7885,147.9926,222.7885" style="stroke:#666666;stroke-width:1.0;"/><line style="stroke:#666666;stroke-width:1.0;stroke-dasharray:2.0,2.0;" x1="145.9926" x2="267.1094" y1="222.7885" y2="222.7885"/><text fill="#666666" font-family="sans-serif" font-size="12" lengthAdjust="spacing" textLength="32.7362" x="169.6187" y="217.2725">HTML</text><text fill="#666666" font-family="sans-serif" font-size="12" lengthAdjust="spacing" textLength="3.12" x="202.355" y="217.2725">&#160;</text><text fill="#666666" font-family="sans-serif" font-size="12" lengthAdjust="spacing" textLength="34.0082" x="205.475" y="217.2725">pages</text><polygon fill="#666666" points="493.0579,249.1326,503.0579,253.1326,493.0579,257.1326,497.0579,253.1326" style="stroke:#666666;stroke-width:1.0;"/><line style="stroke:#666666;stroke-width:1.0;" x1="140.9926" x2="499.0579" y1="253.1326" y2="253.1326"/><text fill="#666666" font-family="sans-serif" font-size="12" lengthAdjust="spacing" textLength="28.5842" x="251.8947" y="247.6166">write</text><text fill="#666666" font-family="sans-serif" font-size="12" lengthAdjust="spacing" textLength="3.12" x="280.4789" y="247.6166">&#160;</text><text fill="#666666" font-family="sans-serif" font-size="12" lengthAdjust="spacing" textLength="32.7362" x="283.599" y="247.6166">HTML</text><text fill="#666666" font-family="sans-serif" font-size="12" lengthAdjust="spacing" textLength="3.12" x="316.3352" y="247.6166">&#160;</text><text fill="#666666" font-family="sans-serif" font-size="12" lengthAdjust="spacing" textLength="6.864" x="319.4552" y="247.6166">+</text><text fill="#666666" font-family="sans-serif" font-size="12" lengthAdjust="spacing" textLength="3.12" x="326.3193" y="247.6166">&#160;</text><text fill="#666666" font-family="sans-serif" font-size="12" lengthAdjust="spacing" textLength="26.5202" x="329.4393" y="247.6166">copy</text><text fill="#666666" font-family="sans-serif" font-size="12" lengthAdjust="spacing" textLength="3.12" x="355.9595" y="247.6166">&#160;</text><text fill="#666666" font-family="sans-serif" font-size="12" lengthAdjust="spacing" textLength="35.0763" x="359.0795" y="247.6166">assets</text><polygon fill="#666666" points="354.6731,279.4767,364.6731,283.4767,354.6731,287.4767,358.6731,283.4767" style="stroke:#666666;stroke-width:1.0;"/><line style="stroke:#666666;stroke-width:1.0;" x1="140.9926" x2="360.6731" y1="283.4767" y2="283.4767"/><text fill="#666666" font-family="sans-serif" font-size="12" lengthAdjust="spacing" textLength="51.1204" x="194.7864" y="277.9607">generate</text><text fill="#666666" font-family="sans-serif" font-size="12" lengthAdjust="spacing" textLength="3.12" x="245.9068" y="277.9607">&#160;</text><text fill="#666666" font-family="sans-serif" font-size="12" lengthAdjust="spacing" textLength="63.8524" x="249.0268" y="277.9607">thumbnails</text><polygon fill="#666666" points="493.0579,309.8208,503.0579,313.8208,493.0579,317.8208,497.0579,313.8208" style="stroke:#666666;stroke-width:1.0;"/><line style="stroke:#666666;stroke-width:1.0;" x1="366.6731" x2="499.0579" y1="313.8208" y2="313.8208"/><text fill="#666666" font-family="sans-serif" font-size="12" lengthAdjust="spacing" textLength="43.3443" x="378.6731" y="308.3048">capture</text><text fill="#666666" font-family="sans-serif" font-size="12" lengthAdjust="spacing" textLength="3.12" x="422.0174" y="308.3048">&#160;</text><text fill="#666666" font-family="sans-serif" font-size="12" lengthAdjust="spacing" textLength="67.9205" x="425.1374" y="308.3048">screenshots</text><polygon fill="#666666" points="151.9926,340.1649,141.9926,344.1649,151.9926,348.1649,147.9926,344.1649" style="stroke:#666666;stroke-width:1.0;"/><line style="stroke:#666666;stroke-width:1.0;stroke-dasharray:2.0,2.0;" x1="145.9926" x2="365.6731" y1="344.1649" y2="344.1649"/><text fill="#666666" font-family="sans-serif" font-size="12" lengthAdjust="spacing" textLength="28.8242" x="239.4207" y="338.6489">done</text><polygon fill="#666666" points="43.5,370.5091,33.5,374.5091,43.5,378.5091,39.5,374.5091" style="stroke:#666666;stroke-width:1.0;"/><line style="stroke:#666666;stroke-width:1.0;stroke-dasharray:2.0,2.0;" x1="37.5" x2="139.9926" y1="374.5091" y2="374.5091"/><text fill="#666666" font-family="sans-serif" font-size="12" lengthAdjust="spacing" textLength="28.7882" x="44.5" y="368.993">Build</text><text fill="#666666" font-family="sans-serif" font-size="12" lengthAdjust="spacing" textLength="3.12" x="73.2882" y="368.993">&#160;</text><text fill="#666666" font-family="sans-serif" font-size="12" lengthAdjust="spacing" textLength="52.5844" x="76.4082" y="368.993">complete</text><!--SRC=[NL71JiCm3BtdAyokKzSBfnuuC34DQPCGPMUK9gQDb2OXTZJjxt7NLGDESTvxzdjE7bmmlbY4WJbHKzTPdpUzuw5qXJ2R61W3RqmSw-Hru3BwYjXwrzNRn-fjWax7GprgOim2VRRuNJ0Ot2IHAgKDnmmd6QMIpkoCIz82g-tXTGMQGCw_n3i6YnbUGky2NYKpygzzo76SwRbKLhFkD26iTiuZj1S9D5u5krQfAG1KJvDT0-ITHOAkE6-L4cXYTcq36RK5MVdBzR06wPULMPHIPnr8BYu6MZhcN0sa70qItVNgjaEr6Eu_ZWT8kXVgjzqvEyQPN8jjkaXQGhwBvjKQw35WbiaWtp9sGJil8QxSCihen2KZaCc8WOR8TyMImiQ0jz42JI_ImFFq1k8joP7n1m00]--></g></svg>